<svg xmlns="http://www.w3.org/2000/svg" xmlns:xlink="http://www.w3.org/1999/xlink" style="isolation:isolate" width="500" height="500" viewBox="0 0 500 500"><defs><clipPath id="_clipPath_RpLrlibERsWI9k8BacsVcn0JVcpMUnvr"><rect width="500" height="500"/></clipPath></defs><g clip-path="url(#_clipPath_RpLrlibERsWI9k8BacsVcn0JVcpMUnvr)"><g style="opacity:.25"><g><g><circle cx="226.649" cy="235.429" r="159.091" fill="#1D6F44" vector-effect="non-scaling-stroke"/><ellipse cx="226.649" cy="219.331" fill="#46C35D" rx="153.409" ry="142.992" vector-effect="non-scaling-stroke"/><linearGradient id="_lgradient_26" x1=".514" x2=".5" y1="-.112" y2=".925" gradientTransform="matrix(272.727,0,0,254.209,90.285,76.338)" gradientUnits="userSpaceOnUse"><stop offset="1.739%" stop-opacity="1" style="stop-color:#b1fdbf"/><stop offset="97.826%" stop-opacity="1" style="stop-color:#5dd973"/></linearGradient><ellipse cx="226.649" cy="203.443" fill="url(#_lgradient_26)" rx="136.364" ry="127.104" vector-effect="non-scaling-stroke"/><g><circle cx="312.823" cy="300.77" r="19.886" fill="#A6F8B5" vector-effect="non-scaling-stroke"/><circle cx="312.823" cy="300.77" r="16.098" fill="#46C35D" vector-effect="non-scaling-stroke"/></g><g><circle cx="280.1" cy="313.501" r="9.891" fill="#A6F8B5" vector-effect="non-scaling-stroke"/><circle cx="280.1" cy="313.501" r="8.007" fill="#46C35D" vector-effect="non-scaling-stroke"/></g><g><circle cx="169.41" cy="320.656" r="7.997" fill="#A6F8B5" vector-effect="non-scaling-stroke"/><circle cx="169.41" cy="320.656" r="6.473" fill="#46C35D" vector-effect="non-scaling-stroke"/></g><g><circle cx="203.501" cy="336.65" r="7.997" fill="#A6F8B5" vector-effect="non-scaling-stroke"/><circle cx="203.501" cy="336.65" r="6.473" fill="#46C35D" vector-effect="non-scaling-stroke"/></g><g><circle cx="289.991" cy="125.16" r="9.891" fill="#A6F8B5" vector-effect="non-scaling-stroke"/><circle cx="289.991" cy="125.16" r="8.007" fill="#46C35D" vector-effect="non-scaling-stroke"/></g><g><circle cx="353.543" cy="186.397" r="17.045" fill="#A6F8B5" vector-effect="non-scaling-stroke"/><circle cx="353.543" cy="186.397" r="13.799" fill="#46C35D" vector-effect="non-scaling-stroke"/></g><g><circle cx="310.834" cy="338.133" r="8.007" fill="#46C35D" vector-effect="non-scaling-stroke"/></g><g><circle cx="247.052" cy="358.104" r="16.615" fill="#46C35D" vector-effect="non-scaling-stroke"/></g></g></g><g style="opacity:.25"><g><g opacity=".39"><radialGradient id="_rgradient_122" cx=".5" cy=".5" r=".5" fx=".5" fy=".5" gradientTransform="matrix(25.356,-26.076,-26.076,-25.356,329.415,72.211)" gradientUnits="userSpaceOnUse"><stop offset="0%" stop-opacity="1" style="stop-color:#ebebeb"/><stop offset="98.261%" stop-opacity="0" style="stop-color:#fff"/></radialGradient><path fill="url(#_rgradient_122)" d="M 316.377 59.533 C 323.573 66.53 335.096 66.369 342.093 59.173 C 349.09 51.977 348.929 40.454 341.733 33.457 C 334.538 26.46 323.015 26.621 316.017 33.817 C 309.02 41.013 309.181 52.536 316.377 59.533 Z"/></g><path fill="#EBEBEB" d="M 341.362 55.109 L 333.276 45.75 L 337.669 34.188 L 328.31 42.275 L 316.748 37.881 L 324.835 47.24 L 320.441 58.802 L 329.8 50.715 L 341.362 55.109 Z"/></g><g><g opacity=".39"><radialGradient id="_rgradient_123" cx=".5" cy=".5" r=".5" fx=".5" fy=".5" gradientTransform="matrix(38.92,-2.66,-2.66,-38.92,1.376,241.56)" gradientUnits="userSpaceOnUse"><stop offset="0%" stop-opacity="1" style="stop-color:#ebebeb"/><stop offset="98.261%" stop-opacity="0" style="stop-color:#fff"/></radialGradient><path fill="url(#_rgradient_123)" d="M 0.046 222.1 C 0.78 232.84 10.096 240.964 20.836 240.23 C 31.576 239.496 39.7 230.18 38.966 219.44 C 38.232 208.699 28.916 200.576 18.176 201.31 C 7.436 202.044 -0.688 211.36 0.046 222.1 Z"/></g><path fill="#EBEBEB" d="M 23.163 236.461 L 23.409 223.198 L 35.198 217.113 L 21.934 216.867 L 15.849 205.078 L 15.603 218.342 L 3.814 224.427 L 17.078 224.673 L 23.163 236.461 Z"/></g><g><g opacity=".39"><radialGradient id="_rgradient_124" cx=".5" cy=".5" r=".5" fx=".5" fy=".5" gradientTransform="matrix(51.717,16.53,16.53,-51.717,87.944,478.441)" gradientUnits="userSpaceOnUse"><stop offset="0%" stop-opacity="1" style="stop-color:#ebebeb"/><stop offset="98.261%" stop-opacity="0" style="stop-color:#fff"/></radialGradient><path fill="url(#_rgradient_124)" d="M 96.208 452.583 C 91.647 466.854 99.53 482.145 113.802 486.706 C 128.074 491.268 143.364 483.384 147.926 469.112 C 152.487 454.84 144.604 439.55 130.332 434.989 C 116.06 430.427 100.77 438.311 96.208 452.583 Z"/></g><path fill="#EBEBEB" d="M 118.746 483.025 L 125.871 465.991 L 144.245 464.168 L 127.211 457.043 L 125.388 438.67 L 118.263 455.704 L 99.889 457.527 L 116.923 464.651 L 118.746 483.025 Z"/></g><g><g opacity=".39"><radialGradient id="_rgradient_125" cx=".5" cy=".5" r=".5" fx=".5" fy=".5" gradientTransform="matrix(13.431,-13.812,-13.812,-13.431,64.964,124.068)" gradientUnits="userSpaceOnUse"><stop offset="0%" stop-opacity="1" style="stop-color:#ebebeb"/><stop offset="98.261%" stop-opacity="0" style="stop-color:#fff"/></radialGradient><path fill="url(#_rgradient_125)" d="M 58.058 117.352 C 61.87 121.058 67.974 120.973 71.68 117.161 C 75.386 113.35 75.301 107.246 71.489 103.54 C 67.678 99.833 61.574 99.919 57.868 103.73 C 54.161 107.542 54.247 113.646 58.058 117.352 Z"/></g><path fill="#EBEBEB" d="M 71.293 115.009 L 67.009 110.051 L 69.337 103.927 L 64.379 108.21 L 58.255 105.883 L 62.538 110.84 L 60.211 116.965 L 65.168 112.681 L 71.293 115.009 Z"/></g></g></g></g></svg>